<?xml version="1.0" standalone="no"?>
<!DOCTYPE svg PUBLIC "-//W3C//DTD SVG 20010904//EN"
 "http://www.w3.org/TR/2001/REC-SVG-20010904/DTD/svg10.dtd">
<svg version="1.0" xmlns="http://www.w3.org/2000/svg"
 width="539.000000pt" height="127.000000pt" viewBox="0 0 539.000000 127.000000"
 preserveAspectRatio="xMidYMid meet">

<g transform="translate(0.000000,127.000000) scale(0.100000,-0.100000)"
fill="#000000" stroke="none">
<path d="M1020 640 l0 -630 641 2 640 3 0 175 0 175 -395 3 -396 2 0 450 0
450 -245 0 -245 0 0 -630z"/>
<path d="M2190 1090 l0 -180 210 0 210 0 0 -450 0 -450 240 0 240 0 0 450 0
450 210 0 210 0 0 180 0 180 -660 0 -660 0 0 -180z"/>
<path d="M3849 649 c-156 -342 -285 -626 -287 -630 -2 -5 83 -9 190 -9 l193 1
280 614 c154 338 281 621 283 630 3 13 -20 15 -185 15 l-189 0 -285 -621z"/>
<path d="M365 831 l-360 -117 -3 -121 -3 -121 78 -25 c43 -14 206 -67 363
-118 157 -50 291 -94 298 -96 9 -4 12 22 12 110 l0 116 -52 15 c-29 8 -132 36
-228 61 -96 26 -178 50 -183 54 -4 4 98 36 228 71 l235 63 0 114 c0 84 -3 113
-12 112 -7 0 -175 -53 -373 -118z"/>
<path d="M4632 838 l3 -113 237 -64 c131 -36 236 -66 234 -69 -4 -3 -122 -36
-438 -123 l-38 -10 0 -115 c0 -89 3 -115 13 -112 6 3 41 14 77 26 36 11 199
64 363 117 l298 96 -3 121 -3 122 -345 112 c-190 62 -358 116 -373 119 l-28 7
3 -114z"/>
</g>
</svg>
